[Header]
FileType HTR
DataType HTRS
FileVersion 1
NumSegments 22
NumFrames 5
DataFrameRate 24
EulerRotationOrder ZYX
CalibrationUnits mm
RotationUnits Degrees
GlobalAxisofGravity Y
BoneLengthAxis Y
ScaleFactor 1.0
[SegmentNames&Hierarchy]
reference	GLOBAL
Hips	reference
Spine	Hips
Spine1	Spine
Neck	Spine1
Head	Neck
LeftShoulder	Spine1
LeftArm	LeftShoulder
LeftForeArm	LeftArm
LeftHand	LeftForeArm
RightShoulder	Spine1
RightArm	RightShoulder
RightForeArm	RightArm
RightHand	RightForeArm
LeftUpLeg	Hips
LeftLeg	LeftUpLeg
LeftFoot	LeftLeg
LeftToeBase	LeftFoot
RightUpLeg	Hips
RightLeg	RightUpLeg
RightFoot	RightLeg
RightToeBase	RightFoot
[BasePosition]
reference	0	0	0	0	0	0	1
Hips	0	0	0	0	0	0	1
Spine	0	0	0	0	-0	90	1
Spine1	0	0	0	0	0	0	1
Neck	0	0	0	-7.352327771	-7.352327771	90	1
Head	0	0	0	0	-0	90	1
LeftShoulder	0	0	0	0	0	0	1
LeftArm	0	0	0	0	0	0	1
LeftForeArm	0	0	0	0	0	0	1
LeftHand	0	0	0	0	0	0	1
RightShoulder	0	0	0	0	-0	180	1
RightArm	0	0	0	0	-0	180	1
RightForeArm	0	0	0	0	-0	180	1
RightHand	0	0	0	0	-0	180	1
LeftUpLeg	0	0	0	0	-0	-90	1
LeftLeg	0	0	0	0	-0	-90	1
LeftFoot	0	0	0	66.57146043	-66.57146043	-90	1
LeftToeBase	0	0	0	0	-90	0	1
RightUpLeg	0	0	0	0	-0	-90	1
RightLeg	0	0	0	0	-0	-90	1
RightFoot	0	0	0	66.57146043	-66.57146043	-90	1
RightToeBase	0	0	0	0	-90	0	1
[reference]
1	0	0	0	0	-0	0	1.0
2	0	0	0	0	-0	0	1.0
3	0	0	0	0	-0	0	1.0
4	0	0	0	0	-0	0	1.0
5	0	0	0	0	-0	0	1.0
[Hips]
1	6.586520195	8.523360252	0.5953900218	-5.262237549	-111.6438217	7.036148071	1.0
2	6.586520195	8.523360252	0.5953900218	-5.281052589	-111.55336	7.031546116	1.0
3	6.586520195	8.523360252	0.5953900218	-5.283000946	-111.5033951	7.052443504	1.0
4	6.586520195	8.523360252	0.5953900218	-5.18436718	-111.4526062	6.944290161	1.0
5	6.586520195	8.523360252	0.5953900218	-5.169911385	-111.4680634	6.857809067	1.0
[Spine]
1	0	0.7457100153	0	-12.79708767	2.054293394	-88.22457123	1.0
2	0	0.7457100153	0	-12.75834846	2.063349724	-88.16937256	1.0
3	0	0.7457100153	0	-12.71053982	2.019521236	-88.18861389	1.0
4	0	0.7457100153	0	-12.72773647	1.955182552	-88.24880981	1.0
5	0	0.7457100153	0	-12.71134472	1.938463688	-88.30528259	1.0
[Spine1]
1	0	2.140589952	0	13.97202015	0.3282999694	2.389519691	1.0
2	0	2.140589952	0	14.00035191	0.3604976535	2.134302855	1.0
3	0	2.140589952	0	13.9453373	0.367809236	1.933849812	1.0
4	0	2.140589952	0	13.96948624	0.3560375869	1.867720842	1.0
5	0	2.140589952	0	14.03360462	0.3595968783	1.819997191	1.0
[Neck]
1	0	2.32246995	0	-14.05288887	8.998532295	-91.6195755	1.0
2	0	2.32246995	0	-13.79865932	9.047542572	-91.2641449	1.0
3	0	2.32246995	0	-13.68691635	9.265161514	-91.28453827	1.0
4	0	2.32246995	0	-13.71075916	9.254300117	-91.32805634	1.0
5	0	2.32246995	0	-13.63411522	9.173253059	-91.35351563	1.0
[Head]
1	0	1.409579992	0.1818799973	-4.658225536	1.930128217	-91.39542389	1.0
2	0	1.409579992	0.1818799973	-4.914346695	1.963539839	-91.52294159	1.0
3	0	1.409579992	0.1818799973	-5.211420059	2.181386709	-91.48060608	1.0
4	0	1.409579992	0.1818799973	-5.143261909	2.170774221	-91.46538544	1.0
5	0	1.409579992	0.1818799973	-5.265561104	2.082248688	-91.43103027	1.0
[LeftShoulder]
1	0.3668199778	1.946700096	-0.02662999928	-15.38615322	-12.15671158	-6.358041286	1.0
2	0.3668199778	1.946700096	-0.02662999928	-15.42335129	-12.17359829	-6.117981434	1.0
3	0.3668199778	1.946700096	-0.02662999928	-15.52027512	-12.00974941	-5.962341309	1.0
4	0.3668199778	1.946700096	-0.02662999928	-15.45833969	-11.9467001	-5.97107172	1.0
5	0.3668199778	1.946700096	-0.02662999928	-15.93033028	-12.38402176	-6.083076954	1.0
[LeftArm]
1	1.140689969	0	0	44.79483414	14.29659557	-74.86959839	1.0
2	1.140689969	0	0	45.8332634	14.39563179	-75.22661591	1.0
3	1.140689969	0	0	46.04734421	14.5362711	-75.56451416	1.0
4	1.140689969	0	0	45.97470474	14.38044453	-75.59239197	1.0
5	1.140689969	0	0	45.89923477	15.09313202	-75.41521454	1.0
[LeftForeArm]
1	2.749800205	0	0	-16.38328171	-12.59478188	1.627585053	1.0
2	2.749800205	0	0	-16.94272614	-12.75313759	2.028182507	1.0
3	2.749800205	0	0	-17.01460266	-12.80280113	2.329916	1.0
4	2.749800205	0	0	-16.93133545	-12.82832909	2.142789364	1.0
5	2.749800205	0	0	-16.9513073	-12.91082287	2.280894279	1.0
[LeftHand]
1	2.295179844	0	0	-16.22161674	-3.26296854	0.6303103566	1.0
2	2.295179844	0	0	-16.7322464	-3.304599762	0.5621204376	1.0
3	2.295179844	0	0	-16.75861359	-3.330174446	0.1877474636	1.0
4	2.295179844	0	0	-16.69784737	-3.384658813	0.2528899312	1.0
5	2.295179844	0	0	-16.70354462	-3.328579426	0.3563887775	1.0
[RightShoulder]
1	-0.3601199985	1.946700096	-0.02662999928	-4.99332428	4.697227001	177.8334808	1.0
2	-0.3601199985	1.946700096	-0.02662999928	-4.891472816	4.708575726	177.9423828	1.0
3	-0.3601199985	1.946700096	-0.02662999928	-4.900708199	4.667206764	177.9517212	1.0
4	-0.3601199985	1.946700096	-0.02662999928	-4.941928864	4.659061432	177.9020996	1.0
5	-0.3601199985	1.946700096	-0.02662999928	-4.864900589	4.618731022	177.9230804	1.0
[RightArm]
1	-1.140689969	0	0	52.14548492	0.3850957155	-99.62032318	1.0
2	-1.140689969	0	0	52.15608215	0.3081495166	-99.52568054	1.0
3	-1.140689969	0	0	51.91368103	0.2450846285	-99.52194214	1.0
4	-1.140689969	0	0	52.02823257	0.1282590777	-99.40663147	1.0
5	-1.140689969	0	0	51.85145569	0.1992405057	-99.41452789	1.0
[RightForeArm]
1	-2.749800205	0	0	-2.445796728	11.07470989	178.4491577	1.0
2	-2.749800205	0	0	-2.459645271	10.93613625	178.4059296	1.0
3	-2.749800205	0	0	-2.373991966	10.94354248	178.554718	1.0
4	-2.749800205	0	0	-2.471228361	10.95625591	178.4769897	1.0
5	-2.749800205	0	0	-2.42256856	11.08186054	178.5771637	1.0
[RightHand]
1	-2.295179844	0	0	-2.688156366	6.753381252	173.3525085	1.0
2	-2.295179844	0	0	-2.701328754	6.701014042	173.2734222	1.0
3	-2.295179844	0	0	-2.613808632	6.668160915	173.5155487	1.0
4	-2.295179844	0	0	-2.721534967	6.648440838	173.184845	1.0
5	-2.295179844	0	0	-2.687487364	6.657943726	173.0819244	1.0
[LeftUpLeg]
1	0.9094099998	0	0	5.409720421	5.030991077	93.2804184	1.0
2	0.9094099998	0	0	5.345648766	5.06480217	93.34008026	1.0
3	0.9094099998	0	0	5.273648739	5.166950226	93.4312973	1.0
4	0.9094099998	0	0	5.194787979	5.068433762	93.47689819	1.0
5	0.9094099998	0	0	5.243221283	4.855703354	93.60263824	1.0
[LeftLeg]
1	0	-4.498080254	0	0.9491716623	-2.371016026	88.28127289	1.0
2	0	-4.498080254	0	1.101711273	-2.431316614	88.27150726	1.0
3	0	-4.498080254	0	1.272428274	-2.531576157	88.27087402	1.0
4	0	-4.498080254	0	1.408442736	-2.553510427	88.25941467	1.0
5	0	-4.498080254	0	1.505009294	-2.897889137	88.07559204	1.0
[LeftFoot]
1	0	-3.729400158	0	-78.47346497	112.0080261	-27.54948425	1.0
2	0	-3.729400158	0	-78.62506104	111.9526291	-27.63991547	1.0
3	0	-3.729400158	0	-78.72668457	111.808075	-27.64099503	1.0
4	0	-3.729400158	0	-78.50099945	111.7982712	-27.38505363	1.0
5	0	-3.729400158	0	-77.44179535	112.0817337	-26.10931396	1.0
[LeftToeBase]
1	0	-0.5911099911	1.364109993	0	0	0	1.0
2	0	-0.5911099911	1.364109993	0	0	0	1.0
3	0	-0.5911099911	1.364109993	0	0	0	1.0
4	0	-0.5911099911	1.364109993	0	0	0	1.0
5	0	-0.5911099911	1.364109993	0	0	0	1.0
[RightUpLeg]
1	-0.9094099998	0	0	4.482014656	-2.672243834	93.87622833	1.0
2	-0.9094099998	0	0	4.421688557	-2.582639217	93.93754578	1.0
3	-0.9094099998	0	0	4.271839619	-2.507943153	94.00003052	1.0
4	-0.9094099998	0	0	4.319189072	-2.864037037	94.02993011	1.0
5	-0.9094099998	0	0	4.418097496	-2.807679415	94.10108948	1.0
[RightLeg]
1	0	-4.498080254	0	3.882860899	-3.556156397	90.18086243	1.0
2	0	-4.498080254	0	4.056021214	-3.48337841	90.18076324	1.0
3	0	-4.498080254	0	4.424862862	-3.277062893	90.2666626	1.0
4	0	-4.498080254	0	4.32211113	-3.018275261	90.24645233	1.0
5	0	-4.498080254	0	4.267839909	-2.974580288	90.25793457	1.0
[RightFoot]
1	0	-3.729400158	0	45.52857971	64.58733368	89.87609863	1.0
2	0	-3.729400158	0	44.82183838	64.55227661	89.25046539	1.0
3	0	-3.729400158	0	43.77282333	64.47331238	88.32500458	1.0
4	0	-3.729400158	0	43.72353363	64.98251343	88.10262299	1.0
5	0	-3.729400158	0	43.55952835	64.64383698	88.11631012	1.0
[RightToeBase]
1	0	-0.5911099911	1.364109993	0	0	0	1.0
2	0	-0.5911099911	1.364109993	0	0	0	1.0
3	0	-0.5911099911	1.364109993	0	0	0	1.0
4	0	-0.5911099911	1.364109993	0	0	0	1.0
5	0	-0.5911099911	1.364109993	0	0	0	1.0
[EndOfFile]
